<svg width="89" height="103" viewBox="0 0 89 103" fill="none" xmlns="http://www.w3.org/2000/svg">
<path d="M51.24 60.6852C51.24 60.0612 50.688 58.9332 50.4 58.9332C50.28 58.9332 49.872 58.7892 49.536 58.5972C49.2 58.4292 48.408 58.2132 47.784 58.1172C46.92 57.9732 46.608 57.8052 46.44 57.3972C46.296 56.9652 45.936 56.7972 44.688 56.5812C43.848 56.4132 42.912 56.2932 42.648 56.2932C42.36 56.2932 42.024 56.1012 41.904 55.8372C41.76 55.5972 41.304 55.3332 40.896 55.2372C40.488 55.1652 39.864 54.8052 39.504 54.4212L38.88 53.7732L38.76 54.6132C38.64 55.4052 38.592 55.4532 37.608 55.5252C36.72 55.5972 36.552 55.5252 36.432 55.1172C36.336 54.7572 36.096 54.6132 35.664 54.6132C34.488 54.6132 33.96 54.3492 33.96 53.7732C33.96 53.3172 34.128 53.1972 34.992 53.0772C35.544 53.0052 37.68 52.7172 39.72 52.4532C41.76 52.1652 45.72 51.6372 48.48 51.2532L53.52 50.5572L54.312 51.4452C55.536 52.8372 60.384 59.4852 60.264 59.6052C60.192 59.6532 58.488 59.9652 56.472 60.2772C54.456 60.5892 52.44 60.9252 52.032 60.9972C51.36 61.1172 51.24 61.0692 51.24 60.6852Z" fill="#FF1C00"/>
<path d="M18.6 51.4932C18.6 50.5572 18.624 50.5332 19.44 50.5332C20.4 50.5332 20.664 50.8932 20.424 51.8532C20.304 52.3572 20.136 52.4532 19.44 52.4532C18.624 52.4532 18.6 52.4292 18.6 51.4932Z" fill="#FF1C00"/>
<path d="M19.32 49.2132C19.32 48.4212 19.368 48.3732 20.16 48.3732C20.952 48.3732 21 48.4212 21 49.2132C21 50.0052 20.952 50.0532 20.16 50.0532C19.368 50.0532 19.32 50.0052 19.32 49.2132Z" fill="#FF1C00"/>
<path d="M18.984 47.0532C18.912 46.8132 18.528 46.6932 17.904 46.6932C17.136 46.6932 16.944 46.5972 16.824 46.1652C16.56 45.1092 16.704 44.6532 18.216 42.0372C19.056 40.5732 21.504 36.2532 23.64 32.4132C25.8 28.5972 29.4 22.1652 31.68 18.1332C33.96 14.1012 36.48 9.58924 37.32 8.10124C38.136 6.61324 38.856 5.43724 38.904 5.48524C38.952 5.53324 38.736 6.20524 38.424 6.99724C38.112 7.76524 36.792 11.0052 35.52 14.1732C34.224 17.3412 32.928 20.5812 32.616 21.3732C32.328 22.1652 30.384 27.0372 28.296 32.1732C26.232 37.3332 24.168 42.5172 23.688 43.6932C22.728 46.1892 22.56 46.4532 21.936 46.4532C21.672 46.4532 21.288 46.6692 21.072 46.9332C20.568 47.5092 19.2 47.5812 18.984 47.0532Z" fill="#FF1C00"/>
<path d="M3.62398 68.0772C3.57598 68.0052 5.35198 64.7412 7.58398 60.8532C9.81598 56.9652 12.864 51.5892 14.352 48.9252C15.816 46.2372 17.112 44.0532 17.184 44.0532C17.28 44.0532 17.4 44.4852 17.496 45.0132C17.64 45.9732 17.928 46.1652 18.576 45.7572C18.864 45.5652 18.84 45.3972 18.456 44.6052C18.216 44.1012 18.024 43.4532 18.072 43.1412C18.216 42.1812 18.552 42.5892 18.792 44.0532C18.936 44.8452 19.224 45.6612 19.44 45.8772C19.632 46.0692 19.8 46.3812 19.8 46.5252C19.8 46.6932 19.968 46.6212 20.136 46.4052C20.304 46.1652 21 45.8052 21.696 45.5652C22.536 45.3012 22.848 45.1092 22.632 44.9652C22.416 44.8452 22.464 44.7732 22.8 44.7492C23.064 44.7492 23.136 44.6772 22.992 44.6052C22.56 44.4372 22.608 44.0532 23.04 44.0532C23.232 44.0532 23.4 44.1492 23.4 44.2452C23.4 44.3412 22.488 46.7412 21.36 49.5732C19.968 53.0292 19.392 54.7812 19.56 54.9492C19.8 55.1892 23.832 54.7332 30.96 53.6532C32.544 53.4132 34.392 53.1492 35.04 53.0772C36.168 52.9572 36.192 52.9572 35.4 53.2212C34.656 53.4372 34.608 53.4852 35.04 53.6772C35.304 53.7732 35.88 53.8692 36.312 53.8692C36.816 53.8932 37.08 54.0132 37.08 54.2292C37.08 54.7332 37.56 54.9492 37.872 54.6372C38.088 54.4212 38.064 54.2772 37.752 54.1092C37.512 53.9652 37.392 53.7252 37.488 53.5092C37.56 53.2932 37.488 53.0292 37.296 52.9092C37.056 52.7652 37.176 52.6932 37.68 52.6932C38.232 52.6932 38.328 52.7652 38.04 52.9332C37.776 53.1012 37.968 53.1732 38.712 53.1732C39.504 53.1732 39.864 53.3172 40.296 53.7732C40.608 54.1092 41.208 54.4452 41.616 54.5172C42.024 54.6132 42.48 54.8772 42.624 55.1172C42.744 55.3812 43.08 55.5732 43.368 55.5732C43.632 55.5732 44.568 55.6932 45.408 55.8612C46.656 56.0772 47.016 56.2452 47.16 56.6772C47.328 57.0852 47.64 57.2532 48.504 57.3972C49.128 57.4932 49.92 57.7092 50.256 57.8772C50.592 58.0692 51 58.2132 51.144 58.2132C51.312 58.2132 51.48 58.4532 51.552 58.7172C51.672 59.1972 51.816 59.2212 52.776 59.1012C53.376 59.0052 54.144 58.8852 54.48 58.7892C55.032 58.6452 55.056 58.6932 54.888 59.1972C54.696 59.6772 54.456 59.7972 53.376 59.8932C52.248 59.9892 52.08 60.0852 52.128 60.4932C52.176 60.9492 51.936 61.0212 48.768 61.4292C45.696 61.8372 41.52 62.4372 35.28 63.3732C34.104 63.5412 31.296 63.9732 29.04 64.3092C15 66.3972 5.90398 67.7892 4.72798 68.0292C4.17598 68.1252 3.67198 68.1732 3.62398 68.0772Z" fill="#FF3601"/>
<path d="M55.56 60.1332C55.56 60.0132 55.776 59.8932 56.04 59.8932C56.304 59.8932 56.52 60.0132 56.52 60.1332C56.52 60.2772 56.304 60.3732 56.04 60.3732C55.776 60.3732 55.56 60.2772 55.56 60.1332Z" fill="#FF3601"/>
<path d="M56.52 59.1732C56.256 59.0052 56.352 58.9332 56.928 58.9332C57.336 58.9332 57.768 59.0532 57.84 59.1732C58.032 59.4852 57 59.4852 56.52 59.1732Z" fill="#FF3601"/>
<path d="M77.592 60.0612C75.888 57.9252 71.976 52.9332 68.856 48.9732C65.736 45.0132 62.904 41.3892 62.568 40.9332C62.208 40.4772 61.368 39.3732 60.672 38.5092C59.976 37.6452 59.4 36.8292 59.4 36.7332C59.4 36.6372 59.136 36.3492 58.824 36.1092C58.488 35.8452 58.152 35.4132 58.056 35.1252C57.984 34.8372 57.6 34.3572 57.216 34.0212C56.808 33.6852 56.52 33.2052 56.52 32.8692C56.52 32.5092 56.376 32.2932 56.136 32.2932C55.656 32.2932 54.864 31.3572 54.84 30.8052C54.84 30.4692 55.032 30.3732 55.8 30.3732C56.712 30.3732 56.76 30.4212 56.76 31.0692C56.76 31.7172 56.832 31.7892 57.672 31.8612C58.56 31.9332 58.56 31.9332 58.632 33.0852C58.704 34.0932 58.752 34.2132 59.304 34.2132C59.712 34.2132 59.88 34.3332 59.88 34.6932C59.88 34.9572 60.048 35.1732 60.24 35.1732C60.504 35.1732 60.6 34.9092 60.6 34.2132C60.6 33.2532 60.6 33.2532 61.512 33.2532H62.424L65.64 38.7252C69.768 45.7092 77.04 57.8772 78.96 60.9732C80.856 64.0932 80.808 63.9732 80.712 63.9732C80.664 63.9732 79.272 62.2212 77.592 60.0612Z" fill="#FF9000"/>
<path d="M31.896 51.1812C31.824 50.9892 31.8 50.3172 31.848 49.6692C31.92 48.5412 31.944 48.4932 32.712 48.4212C33.936 48.3012 34.272 48.9012 33.72 50.2932C33.384 51.1332 33.168 51.3972 32.664 51.4452C32.28 51.4932 31.992 51.3972 31.896 51.1812Z" fill="#FF9000"/>
<path d="M21.528 53.3412C21.6 53.1732 22.104 51.7812 22.704 50.2452C23.688 47.6292 23.808 47.4132 24.384 47.4132C24.744 47.4132 25.152 47.5812 25.32 47.7732C25.824 48.3732 26.592 48.1092 27.048 47.1732C27.6 46.0212 28.056 45.6132 29.16 45.2772C29.904 45.0612 30.144 44.8452 30.264 44.3412C30.504 43.2132 30.576 43.0932 31.008 43.0932C31.248 43.0932 31.776 42.8772 32.208 42.6372C32.616 42.3732 33.624 42.0852 34.416 41.9892L35.88 41.8212V40.0692C35.88 38.4612 35.928 38.2932 36.36 38.2932C36.768 38.2932 36.84 38.1252 36.84 37.3332C36.84 36.6612 36.936 36.3732 37.176 36.3732C37.416 36.3732 37.56 36.0612 37.608 35.4852C37.68 34.5732 37.68 34.5732 38.856 34.5012C39.888 34.4292 40.008 34.4772 39.864 34.8612C38.256 39.1812 37.128 41.7492 36.792 41.8452C36.48 41.9172 36.432 42.0612 36.576 42.3492C36.744 42.6372 36.36 43.8132 35.28 46.4292L33.792 50.1252L33.288 49.6212C32.736 49.0692 32.52 49.1652 32.52 50.0052C32.52 50.3652 32.688 50.6292 33 50.7012C33.552 50.8452 33.6 51.0132 33.168 51.5652C32.88 51.9732 29.784 52.5492 24.6 53.1732C23.352 53.3172 22.128 53.4852 21.888 53.5332C21.624 53.5812 21.48 53.5092 21.528 53.3412Z" fill="#FF9D00"/>
<path d="M68.5679 46.6692C68.3279 46.3092 68.3279 46.0692 68.4959 45.9012C68.7839 45.6132 69.0959 46.1892 68.9519 46.8132C68.9039 47.1252 68.8079 47.1012 68.5679 46.6692Z" fill="#FF9D00"/>
<path d="M62.88 41.3412C62.784 41.1012 62.76 40.8372 62.856 40.7652C63.096 40.5252 63.288 40.8612 63.168 41.3412C63.072 41.7492 63.072 41.7492 62.88 41.3412Z" fill="#FF9D00"/>
<path d="M61.56 38.6052C61.56 38.5092 61.776 38.2692 62.04 38.1012C62.424 37.8612 62.472 37.7172 62.256 37.1892C62.064 36.6372 62.112 36.4452 62.544 35.9892C63.072 35.4132 63.072 35.4132 62.616 34.8852C61.584 33.6612 61.32 33.6852 61.32 35.0532C61.32 36.0132 61.272 36.1332 60.792 36.0612C60.312 36.0132 60.24 36.1092 60.312 36.8052C60.336 37.2132 60.264 37.5732 60.144 37.5732C60.024 37.5732 58.824 36.1572 57.456 34.4292C56.088 32.7012 54.336 30.4932 53.592 29.5572C52.824 28.6212 52.2 27.7812 52.2 27.6852C52.2 27.5652 52.416 27.4932 52.656 27.4932C52.92 27.4932 53.208 27.2772 53.28 26.9892C53.448 26.4612 53.784 26.4612 55.992 26.9172C56.712 27.0612 56.76 27.0132 56.76 26.4372C56.76 25.7892 56.496 25.6692 54.96 25.5252C54.336 25.4532 54.24 25.3572 54.168 24.6372C54.072 23.6292 54.768 21.9732 55.296 21.9732C55.56 21.9732 57.096 24.3252 59.808 28.8612C63.288 34.7172 63.864 35.7972 63.576 36.0852C63.384 36.2532 63.24 36.5892 63.216 36.8052C63.192 37.4292 62.4 38.6532 61.968 38.7252C61.752 38.7732 61.56 38.7252 61.56 38.6052ZM57.912 33.2052C57.864 32.8932 57.744 32.6532 57.6 32.6532C57.48 32.6532 57.336 32.8932 57.288 33.2052C57.24 33.5652 57.336 33.7332 57.6 33.7332C57.864 33.7332 57.96 33.5652 57.912 33.2052Z" fill="#FF9D00"/>
<path d="M50.16 25.1652C48.768 23.3652 48.696 22.4772 49.944 21.7572C50.4 21.4692 51.12 21.2532 51.528 21.2532H52.272L52.104 22.5252C52.008 23.1972 51.888 24.3492 51.792 25.0452C51.72 25.7412 51.576 26.3652 51.456 26.4372C51.36 26.4852 50.76 25.9332 50.16 25.1652Z" fill="#FF9D00"/>
<path d="M52.44 20.3892V19.3092L53.352 19.3812C54.216 19.4532 54.24 19.4772 54.312 20.4852L54.384 21.4932H53.424H52.44V20.3892Z" fill="#FF9D00"/>
<path d="M23.304 52.0212C23.088 51.6612 23.448 50.7732 23.784 50.7732C24.264 50.7732 24.48 51.4212 24.12 51.8532C23.784 52.2612 23.496 52.3092 23.304 52.0212Z" fill="#FFA600"/>
<path d="M31.56 49.8372C31.56 49.5492 31.68 49.3332 31.8 49.3332C31.944 49.3332 32.04 49.4772 32.04 49.6692C32.04 49.8612 31.944 50.1012 31.8 50.1732C31.68 50.2452 31.56 50.1012 31.56 49.8372Z" fill="#FFA600"/>
<path d="M24.84 48.9972C24.84 48.5892 24.072 47.9172 23.952 48.2532C23.784 48.7332 23.424 49.1892 23.304 49.0692C23.232 49.0212 24.672 45.2532 26.496 40.7172C29.568 33.0612 29.856 32.4612 30.552 32.1252C30.984 31.9092 31.32 31.5972 31.32 31.4292C31.32 31.2372 31.536 31.0932 31.776 31.0932C32.04 31.0932 32.328 30.9972 32.4 30.8532C32.472 30.7332 32.76 30.6132 33.024 30.6132C33.504 30.6132 34.224 29.9172 35.64 28.0932C36.12 27.4692 36.816 26.8932 37.248 26.7492C37.656 26.6292 38.136 26.3412 38.28 26.1492C38.448 25.9812 38.784 25.8132 39 25.8132C39.24 25.8132 39.792 25.5252 40.224 25.1652C40.848 24.6372 41.28 24.4932 42.552 24.4212C44.352 24.3012 44.328 24.0852 42.936 27.3732C42.504 28.4292 41.616 30.5892 40.968 32.1732C39.888 34.8132 39.744 35.0532 39.096 35.1732C38.496 35.2692 38.4 35.4132 38.328 36.2052C38.28 36.7812 38.136 37.0932 37.896 37.0932C37.368 37.0932 37.488 37.8372 38.064 37.9812C38.352 38.0772 38.496 38.2452 38.424 38.4612C38.352 38.6532 38.28 38.8932 38.28 38.9892C38.28 39.0852 37.896 39.1092 37.44 39.0612L36.6 38.9652V40.0692C36.6 40.9092 36.696 41.1732 36.984 41.1732C37.368 41.1732 37.32 41.4852 36.72 42.9252L36.408 43.6452L35.976 43.1412C35.52 42.6132 34.92 42.4452 34.92 42.8292C34.92 43.3812 35.256 43.8132 35.664 43.8132C36.12 43.8132 36.24 44.1972 35.976 44.8692C35.616 45.8052 34.2 44.8452 34.2 43.6452C34.2 42.8772 33.84 42.7812 32.952 43.3332C32.52 43.5972 31.968 43.8132 31.728 43.8132C31.296 43.8132 31.224 43.9332 30.984 45.0612C30.864 45.5652 30.624 45.7812 29.88 45.9972C28.776 46.3332 28.32 46.7412 27.768 47.8692C27.528 48.3732 27.12 48.7812 26.76 48.8532C24.888 49.3332 24.84 49.3332 24.84 48.9972Z" fill="#FFA600"/>
<path d="M56.16 32.6772C56.016 32.3652 56.064 32.1732 56.232 32.1012C56.4 32.0532 56.52 31.7412 56.52 31.4292C56.52 31.0932 56.664 30.8532 56.856 30.8532C57.456 30.8532 57.528 31.2852 57.024 31.7892C56.784 32.0292 56.52 32.4372 56.448 32.7012C56.352 33.1092 56.352 33.1092 56.16 32.6772Z" fill="#FFA600"/>
<path d="M51.696 27.1092C51.096 26.3172 50.808 25.7412 50.904 25.4772C50.976 25.2612 50.928 25.0932 50.784 25.0932C50.64 25.0932 50.52 25.2132 50.52 25.3572C50.52 25.5012 49.656 24.4932 48.576 23.1492C47.496 21.7812 46.416 20.6292 46.176 20.5812C45.84 20.5092 45.6 20.7732 45.24 21.5892C45 22.1892 44.616 22.6932 44.424 22.6932C44.232 22.6932 44.04 22.9332 43.992 23.2452C43.92 23.7012 43.776 23.7732 42.96 23.7732H42L41.928 22.7172C41.808 21.0372 42.024 20.5332 42.816 20.5332C43.368 20.5332 43.536 20.4132 43.608 20.0052C43.68 19.5252 43.824 19.4532 44.928 19.4532C45.6 19.4532 46.248 19.3572 46.344 19.2612C46.44 19.1652 46.704 19.0932 46.944 19.0932C47.208 19.0932 47.4 18.8772 47.448 18.5652C47.496 18.1812 47.712 17.9892 48.12 17.9412C48.456 17.8932 49.128 17.7492 49.608 17.6292C50.376 17.4372 50.496 17.2932 50.568 16.6212C50.64 15.9732 50.736 15.8532 51.36 15.7812C52.056 15.7092 52.152 15.8292 54.048 19.1412C55.128 21.0132 55.944 22.6212 55.824 22.6932C55.704 22.7652 55.44 23.1732 55.224 23.6052C54.768 24.4932 54.936 25.1412 55.44 24.4452C55.752 24.0372 55.8 24.0372 56.496 24.5652C56.904 24.8532 57.312 25.0932 57.456 25.0932C57.768 25.0932 58.032 25.9092 57.744 26.0052C57.36 26.1252 57.432 26.9172 57.84 27.2532C58.056 27.4212 58.152 27.6132 58.08 27.6852C57.888 27.9012 55.008 27.7092 54.552 27.4692C54.216 27.2772 54.096 27.3492 53.976 27.8292C53.736 28.8132 52.8 28.5252 51.696 27.1092ZM51.096 23.4852C51.192 23.1012 51.312 22.6212 51.384 22.3812C51.504 22.0212 51.432 22.0212 50.664 22.4772C49.512 23.1492 49.512 24.0372 50.664 24.1092C50.832 24.1332 51.024 23.8452 51.096 23.4852Z" fill="#FFA600"/>
<path d="M48.12 14.8932C48.12 13.9332 48.216 13.5252 48.48 13.4292C48.696 13.3332 48.84 12.9732 48.84 12.4692C48.84 11.3172 49.536 11.3892 50.232 12.6132C50.52 13.1412 50.664 13.5732 50.52 13.5732C50.4 13.5732 50.28 13.9332 50.28 14.3652C50.28 15.9012 50.064 16.2132 49.056 16.2132H48.12V14.8932Z" fill="#FFA600"/>
<path d="M35.16 44.7732C34.896 44.5092 34.68 44.1732 34.68 44.0532C34.68 43.6932 35.856 44.5812 35.88 44.9652C35.88 45.3732 35.712 45.3252 35.16 44.7732Z" fill="#FFAF00"/>
<path d="M29.472 34.4532C29.208 34.0692 29.544 33.0852 31.824 27.4452C33.288 23.8452 34.752 20.1732 35.112 19.2852C35.688 17.8452 35.832 17.6532 36.384 17.6532C36.744 17.6532 37.152 17.8212 37.32 18.0132C37.488 18.2292 37.848 18.3732 38.112 18.3252C38.616 18.2532 38.688 18.1572 39.336 16.6452C39.6 15.9972 39.864 15.7332 40.2 15.7332C40.488 15.7332 41.04 15.5652 41.472 15.3252C41.904 15.1092 42.72 14.8212 43.32 14.6532C44.136 14.4372 44.544 14.1732 45 13.4772C45.36 12.9492 46.032 12.3972 46.632 12.1332C47.616 11.7012 48.024 10.9332 47.28 10.9332C47.064 10.9332 46.92 10.7172 46.92 10.3332C46.92 9.9012 46.8 9.7332 46.44 9.7332C45.912 9.7332 45.648 8.9892 45.768 7.9092C45.816 7.3572 45.96 7.2132 46.416 7.2132C46.92 7.2132 47.256 7.6212 48.528 9.7332C49.368 11.1252 49.92 12.3012 49.8 12.3252C49.392 12.4692 49.536 12.8532 49.992 12.8532C50.448 12.8532 53.304 17.4852 52.92 17.6052C52.776 17.6532 52.68 17.9652 52.68 18.2772C52.68 18.9252 52.296 19.0212 51.72 18.4932C51.384 18.1812 51.12 18.1812 49.776 18.4692C48.696 18.6852 48.216 18.9012 48.168 19.1652C48.12 19.4052 48.264 19.6452 48.456 19.7172C48.744 19.8372 48.84 20.2212 48.84 21.2532C48.84 22.0452 48.72 22.7412 48.6 22.8132C48.48 22.8852 48.36 22.7652 48.36 22.5012C48.36 22.0692 47.4 20.9652 47.4 21.3972C47.4 21.5172 47.232 21.3972 47.016 21.1332C46.656 20.6532 44.832 19.9812 44.472 20.1972C44.376 20.2692 44.28 20.7012 44.28 21.1572C44.28 21.7332 44.376 21.9732 44.664 21.9732C45.072 21.9732 45.024 22.3092 44.256 24.0132C43.848 24.9492 43.728 25.0452 42.744 25.1412C42.048 25.2372 41.376 25.5012 40.92 25.9092C40.512 26.2452 39.96 26.5332 39.72 26.5332C39.504 26.5332 39.168 26.7012 39 26.8692C38.856 27.0612 38.376 27.3492 37.968 27.4692C37.536 27.6132 36.84 28.1892 36.36 28.8132C34.944 30.6372 34.224 31.3332 33.744 31.3332C33.48 31.3332 33.192 31.4532 33.12 31.5732C33.048 31.7172 32.76 31.8132 32.496 31.8132C32.256 31.8132 32.04 31.9332 32.04 32.0532C32.04 32.5332 31.056 33.2772 30.528 33.2052C30.168 33.1572 30.024 33.2292 30.096 33.4932C30.408 34.6932 30 35.3172 29.472 34.4532ZM43.152 21.9252L42.912 21.1332L42.72 21.7812C42.504 22.6452 42.744 23.3652 43.128 22.9812C43.32 22.7892 43.32 22.4772 43.152 21.9252ZM47.64 20.5572C47.64 20.0052 47.256 19.6932 47.04 20.0532C46.824 20.3892 47.064 21.0132 47.4 21.0132C47.52 21.0132 47.64 20.7972 47.64 20.5572ZM51.864 16.5012C51.648 16.3092 51.24 16.7412 51.24 17.1252C51.264 17.4852 51.288 17.4852 51.6 17.0772C51.792 16.8132 51.912 16.5732 51.864 16.5012ZM49.416 14.8692C49.608 14.1732 49.488 13.9332 49.104 14.1732C48.792 14.3652 48.744 15.4932 49.056 15.4932C49.176 15.4932 49.344 15.2052 49.416 14.8692Z" fill="#FFAF00"/>
<path d="M40.632 31.8612C40.368 31.8132 40.2 31.5492 40.2 31.1892C40.2 30.7332 40.32 30.6132 40.8 30.6132C41.208 30.6132 41.4 30.7332 41.4 31.0452C41.4 31.6452 41.088 31.9572 40.632 31.8612Z" fill="#FFAF00"/>
<path d="M49.824 24.7572C49.44 24.3012 49.56 24.0612 50.016 24.3492C50.184 24.4692 50.304 24.6852 50.232 24.8532C50.16 25.0692 50.04 25.0212 49.824 24.7572Z" fill="#FFAF00"/>
<path d="M52.752 21.7572C52.536 21.4692 52.2 21.2532 52.008 21.2532C51.792 21.2532 51.72 21.0132 51.768 20.6052C51.864 19.7412 52.536 19.7172 52.632 20.5812C52.68 21.0132 52.896 21.2532 53.304 21.3492C53.64 21.4452 53.88 21.6372 53.832 21.7812C53.664 22.2852 53.184 22.2612 52.752 21.7572Z" fill="#FFAF00"/>
<path d="M53.592 19.5492C53.064 19.2612 53.04 18.8532 53.52 18.8532C53.712 18.8532 53.976 19.0692 54.12 19.3332C54.408 19.8612 54.216 19.9332 53.592 19.5492Z" fill="#FFAF00"/>
<path d="M8.75998 68.8693C9.19198 68.7733 15.864 67.7653 19.8 67.2133C21.312 66.9973 23.856 66.6133 25.44 66.3733C27.024 66.1333 29.952 65.7013 31.92 65.4133C33.912 65.1253 36.072 64.8133 36.72 64.6933C39.768 64.1653 40.2 64.1653 40.2 64.6213C40.2 64.8373 39.912 65.2693 39.552 65.5573C39.168 65.8453 38.976 66.1813 39.072 66.3013C39.192 66.3973 40.824 66.4693 42.696 66.4213C45.864 66.3733 46.152 66.3973 46.56 66.8533C46.944 67.2613 47.304 67.3333 49.2 67.3333C51.216 67.3333 51.432 67.2853 51.552 66.8533C51.672 66.3973 51.864 66.3733 55.608 66.3973C57.744 66.3973 59.952 66.4693 60.48 66.5653C61.344 66.7093 61.44 66.8293 61.512 67.4773L61.584 68.2213L59.112 68.3653C57.744 68.4613 54.168 68.5333 51.12 68.5333C48.096 68.5333 39.816 68.6533 32.76 68.7733C20.208 68.9893 8.03998 69.0373 8.75998 68.8693Z" fill="#00C5EC"/>
<path d="M44.52 64.2373C44.52 63.6133 44.616 63.5413 45.552 63.3973C46.104 63.3013 46.92 63.1813 47.352 63.1093C48.072 62.9653 48.12 63.0133 48.12 63.6613C48.12 64.6933 47.712 64.9333 46.032 64.9333C44.52 64.9333 44.52 64.9333 44.52 64.2373Z" fill="#00C5EC"/>
<path d="M55.272 64.7653C54.936 64.6933 54.84 64.3813 54.84 63.3493C54.84 61.8613 54.768 61.9093 57.072 61.6213L58.704 61.4053L58.632 63.1093L58.56 64.8133L57.12 64.8613C56.328 64.8613 55.488 64.8373 55.272 64.7653Z" fill="#00C5EC"/>
<path d="M41.88 64.3572C41.88 64.0452 42.552 63.7332 43.272 63.7332C43.416 63.7332 43.56 63.9492 43.56 64.2132C43.56 64.5972 43.392 64.6932 42.72 64.6932C42.168 64.6932 41.88 64.5732 41.88 64.3572Z" fill="#00C5EC"/>
<path d="M48.528 63.8052C48.216 63.5172 48.36 63.0372 48.792 62.9172C49.008 62.8452 49.608 62.7252 50.112 62.6292C50.976 62.4852 51 62.4852 51 63.2292C51 63.9492 50.976 63.9732 49.848 63.9732C49.2 63.9732 48.6 63.9012 48.528 63.8052Z" fill="#00C5EC"/>
<path d="M61.752 58.9812C60.792 57.9492 56.28 51.7812 56.28 51.5172C56.28 51.3732 56.664 51.2532 57.12 51.2532C57.576 51.2532 57.96 51.3492 57.96 51.4692C57.96 51.5652 58.392 52.1652 58.92 52.7652C59.448 53.3652 59.88 54.0612 59.88 54.3252C59.88 54.6612 60.072 54.8532 60.432 54.9012C60.84 54.9492 60.984 55.1412 61.032 55.8372C61.104 56.6052 61.2 56.7252 61.992 56.9172C62.76 57.1092 62.88 57.2292 62.952 57.9012C63 58.3332 62.88 58.9092 62.688 59.1732C62.376 59.6292 62.352 59.6292 61.752 58.9812Z" fill="#00C5EC"/>
<path d="M73.008 59.0052C72.912 58.9332 72.84 58.6452 72.84 58.4052C72.84 58.1652 72.744 57.9732 72.6 57.9732C72.48 57.9732 72.36 57.5892 72.36 57.1332C72.36 56.6772 72.456 56.2932 72.576 56.2932C72.768 56.2932 74.448 58.1892 74.856 58.8852C74.976 59.1012 74.784 59.1732 74.088 59.1732C73.584 59.1732 73.08 59.1012 73.008 59.0052Z" fill="#00C5EC"/>
<path d="M54.408 49.3093C53.856 48.5893 53.52 47.9173 53.616 47.8213C53.736 47.7013 54.24 47.6533 54.744 47.7013C55.656 47.7733 55.68 47.7973 55.752 48.7813C55.8 49.3573 55.728 49.9813 55.608 50.1973C55.416 50.5333 55.224 50.3653 54.408 49.3093Z" fill="#00C5EC"/>
<path d="M63.096 48.5173C63.024 48.3253 63 47.8213 63.048 47.3653C63.12 46.6213 63.168 46.5733 64.152 46.5013L65.16 46.4293V47.6293V48.8533H64.2C63.576 48.8533 63.168 48.7333 63.096 48.5173Z" fill="#00C5EC"/>
<path d="M51.552 45.6612C50.424 44.1732 50.04 43.4532 50.04 42.9012C50.04 42.1572 50.064 42.1332 51.072 42.1332C52.416 42.1332 52.68 42.4452 52.68 43.9572C52.68 44.8452 52.776 45.2532 53.04 45.3492C53.28 45.4452 53.4 45.8292 53.4 46.5732C53.4 47.1732 53.328 47.6532 53.232 47.6532C53.112 47.6532 52.368 46.7412 51.552 45.6612Z" fill="#00C5EC"/>
<path d="M53.64 46.2132V45.2532H54.6H55.56V46.2132V47.1732H54.6H53.64V46.2132Z" fill="#00C5EC"/>
<path d="M60.744 45.1332C60.672 44.5332 60.528 43.5732 60.456 42.9732C60.36 42.2292 60.192 41.8932 59.952 41.8932C59.736 41.8932 59.424 41.7012 59.256 41.4852C58.848 40.9332 58.824 39.2532 59.232 39.2532C59.544 39.2772 61.224 41.4132 61.128 41.7252C61.104 41.8212 61.176 41.8932 61.296 41.8932C61.44 41.8932 62.016 42.5172 62.592 43.2852L63.648 44.6532L63.144 45.4212C62.736 46.0692 62.496 46.2132 61.776 46.2132C60.912 46.2132 60.888 46.1892 60.744 45.1332Z" fill="#00C5EC"/>
<path d="M48.72 41.9412C46.992 39.7812 42.768 34.0452 42.528 33.5652C42.336 33.1572 42.504 32.5332 43.272 30.5652C43.8 29.1972 44.712 26.8692 45.288 25.4052C45.84 23.9172 46.392 22.6932 46.464 22.6932C46.608 22.6932 48.84 25.5012 48.84 25.6932C48.84 25.7652 48.456 25.8132 48 25.8132C47.496 25.8132 47.088 25.6692 46.92 25.4052C46.704 25.0692 46.68 25.1652 46.8 25.8852C46.872 26.3892 46.872 27.8292 46.776 29.0772L46.608 31.3332H45.84C45.36 31.3332 45 31.4772 44.904 31.6932C44.832 31.9092 44.472 32.0532 44.016 32.0532C43.392 32.0532 43.32 32.1012 43.56 32.3892C43.704 32.5812 44.064 32.7732 44.352 32.8212C44.76 32.8692 44.904 33.0852 44.952 33.8052C45 34.4532 45.144 34.6932 45.432 34.6932C46.032 34.6932 46.92 35.7492 46.92 36.4692C46.92 37.2132 47.4 37.3092 47.568 36.5892C47.688 36.1812 47.856 36.1092 48.696 36.1812C49.68 36.2532 49.68 36.2532 49.752 37.2852C49.8 38.0292 49.728 38.3412 49.464 38.4372C48.984 38.6292 48.984 39.4692 49.44 40.0692C49.8 40.5492 49.944 42.8532 49.632 42.8532C49.512 42.8532 49.128 42.4452 48.72 41.9412Z" fill="#00C5EC"/>
<path d="M55.488 36.6853C55.392 36.6133 55.32 36.1093 55.32 35.6053C55.32 34.3813 55.776 34.4293 56.736 35.7733L57.504 36.8533H56.568C56.064 36.8533 55.56 36.7813 55.488 36.6853Z" fill="#00C5EC"/>
<path d="M52.848 33.3253C52.752 33.2533 52.68 32.7493 52.68 32.2453C52.68 31.0213 53.136 31.0693 54.096 32.4133L54.864 33.4933H53.928C53.424 33.4933 52.92 33.4213 52.848 33.3253Z" fill="#00C5EC"/>
<path d="M48.36 30.7572C48.36 30.1572 48.48 29.6052 48.624 29.5092C48.792 29.4132 48.84 28.8132 48.72 27.7092C48.576 26.3172 48.6 26.0532 48.912 26.0532C49.104 26.0532 49.464 26.3412 49.704 26.7252C49.92 27.0852 50.76 28.1412 51.528 29.1012C52.296 30.0372 52.92 30.8772 52.92 30.9492C52.92 31.0212 52.44 31.0932 51.864 31.0932C51.144 31.0932 50.76 31.2132 50.664 31.4532C50.568 31.6932 50.184 31.8132 49.44 31.8132H48.36V30.7572Z" fill="#00C5EC"/>
<path d="M31.8 27.6372C31.8 27.2772 32.376 26.0532 32.544 26.0532C32.832 26.0532 32.808 26.3892 32.472 27.1332C32.256 27.6132 31.8 27.9732 31.8 27.6372Z" fill="#FFB900"/>
<path d="M34.08 21.7812C34.272 21.3252 34.44 20.9172 34.44 20.8932C34.44 20.8452 34.632 20.8452 34.872 20.8692C35.208 20.8932 35.28 20.7012 35.256 19.9572C35.232 19.2372 36.072 16.8612 38.568 10.5972C40.416 5.96521 42.096 1.64521 42.312 0.973212C42.648 -0.130788 42.696 -0.178788 43.008 0.253212C43.392 0.781212 47.4 7.86121 47.4 8.00521C47.4 8.05321 47.232 8.05321 47.04 7.98121C46.608 7.81321 46.392 8.12521 46.584 8.62921C46.776 9.13321 47.16 9.13321 47.16 8.62921C47.16 8.12521 47.64 8.31721 48.072 8.96521C48.384 9.44521 48.384 9.49321 48.024 9.49321C47.808 9.49321 47.64 9.66121 47.64 9.85321C47.64 10.0692 47.856 10.2132 48.24 10.2132C48.576 10.2132 48.936 10.4052 49.08 10.6932C49.296 11.0772 49.272 11.1732 48.984 11.1732C48.768 11.1732 48.528 11.4612 48.456 11.7972C48.336 12.2292 47.976 12.5652 47.328 12.8532C46.752 13.1172 46.08 13.6932 45.72 14.1972C45.264 14.8932 44.856 15.1572 44.04 15.3732C43.44 15.5412 42.624 15.8292 42.192 16.0452C41.76 16.2852 41.208 16.4532 40.92 16.4532C40.584 16.4532 40.32 16.7172 40.056 17.3652C39.84 17.8452 39.576 18.3972 39.504 18.5892C39.408 18.7812 38.904 19.0692 38.376 19.2132C37.512 19.4772 37.392 19.4532 36.768 18.8772L36.072 18.2532L36.216 19.8132C36.312 20.6772 36.288 21.4932 36.192 21.6132C36.096 21.7572 35.496 22.0212 34.872 22.2372L33.744 22.6212L34.08 21.7812Z" fill="#FFB900"/>
<path d="M49.608 15.5652C49.728 14.9652 50.28 14.8932 50.28 15.4692C50.28 15.7572 50.136 15.9732 49.896 15.9732C49.68 15.9732 49.56 15.8052 49.608 15.5652Z" fill="#FFB900"/>
<path d="M24.24 68.5332C24.072 68.2452 24.456 68.2212 29.04 68.1492C32.664 68.1012 34.2 68.2212 34.2 68.5572C34.2 68.8692 24.432 68.8452 24.24 68.5332Z" fill="#00D9FC"/>
<path d="M47.4 68.2932C47.4 68.1732 47.136 68.0532 46.848 68.0532C46.536 68.0532 46.08 67.8372 45.816 67.5492C45.408 67.0932 45.216 67.0692 43.488 67.2132C42.456 67.3092 40.56 67.3092 39.288 67.2132C37.224 67.0452 37.032 66.9972 37.608 66.7572C38.256 66.4692 38.256 66.4692 37.8 66.0612C37.176 65.5332 37.2 65.1732 37.824 65.1732C38.088 65.1732 38.64 64.9572 39.024 64.6932C39.432 64.3812 40.368 64.1172 41.448 63.9732C42.408 63.8532 43.656 63.6852 44.232 63.5892C45.072 63.4452 45.24 63.4932 45.24 63.8292C45.24 64.4772 46.968 64.2612 47.28 63.5652C47.496 63.0372 48.984 62.6532 49.224 63.0612C49.44 63.3972 50.28 63.2772 50.136 62.9412C50.064 62.7012 50.616 62.5572 52.248 62.3172C53.472 62.1492 54.864 61.9572 55.32 61.8852C56.088 61.7412 56.136 61.7652 55.824 62.1492C55.512 62.5332 55.56 62.5572 56.664 62.4852C57.504 62.4372 57.84 62.3172 57.84 62.0532C57.84 61.5732 58.44 61.3572 60.384 61.1892C61.296 61.0932 62.232 60.9012 62.448 60.7332C62.808 60.4692 62.784 60.3732 62.28 59.6532C61.824 59.0052 61.776 58.7892 62.016 58.4292C62.256 58.0212 62.208 57.9252 61.656 57.7332C61.32 57.5892 60.96 57.5412 60.84 57.6132C60.744 57.6852 60.456 57.4452 60.24 57.1092C59.928 56.6292 59.904 56.4372 60.12 56.2932C60.576 56.0292 60.168 55.5492 59.568 55.6212C59.136 55.6692 59.04 55.5732 59.04 55.0932C59.04 54.7332 58.68 54.0372 58.152 53.4132C57.648 52.8372 57.24 52.2612 57.24 52.1172C57.24 51.9732 57.144 51.9972 57.024 52.1892C56.88 52.4292 56.568 52.1652 55.824 51.1812C55.032 50.1492 54.864 49.7172 54.96 49.2612C55.128 48.5892 54.72 48.1572 54.312 48.5652C53.976 48.9012 52.68 47.3412 52.68 46.6452C52.68 46.3812 52.488 46.1172 52.248 46.0452C51.912 45.9732 51.84 45.6852 51.84 44.6052C51.84 43.6212 51.744 43.2132 51.432 43.0212C50.88 42.6612 50.592 42.9972 50.952 43.5972C51.12 43.8612 51.168 44.2212 51.048 44.4132C50.904 44.7012 50.664 44.4852 49.968 43.5732C49.488 42.9252 49.08 42.1572 49.08 41.8932C49.08 41.6052 48.96 41.1732 48.816 40.9092C48.624 40.5252 48.504 40.4772 48.216 40.6932C47.952 40.9332 47.856 40.9092 47.736 40.5732C47.616 40.3092 47.712 40.0692 47.952 39.9252C48.216 39.7812 48.36 39.3972 48.36 38.8452C48.36 38.3172 48.504 37.8612 48.768 37.6932C48.984 37.5252 49.08 37.2852 48.984 37.1412C48.744 36.7332 48.408 36.7812 48.312 37.2372C48.216 37.8132 46.416 38.3172 45.888 37.9332C45.384 37.5732 45.384 37.3332 45.888 36.9732C46.272 36.6852 46.272 36.6132 45.648 36.0132C45.192 35.5332 45 35.4612 45 35.7252C45 36.3492 44.352 36.3732 44.04 35.7492C43.776 35.2692 43.776 35.0772 44.016 34.5972C44.376 33.9492 44.184 33.4452 43.68 33.6612C43.464 33.7332 43.128 33.5412 42.864 33.2292C42.288 32.5092 42.672 31.3332 43.488 31.3332C44.208 31.3332 44.4 30.9012 43.92 30.3972C43.584 30.0132 43.584 29.8452 43.848 29.1732L44.16 28.4052L44.976 29.5092C45.432 30.1092 45.864 30.5652 45.912 30.4932C45.984 30.4212 45.888 29.9412 45.72 29.3892C45.432 28.5012 45.432 28.3812 45.792 28.1652C46.224 27.9492 46.344 26.8932 46.008 26.6772C45.768 26.5332 45.816 23.9652 46.08 23.3412C46.248 22.9332 46.296 22.9572 46.536 23.4612C46.68 23.7492 47.064 24.1332 47.352 24.2772C47.664 24.4212 47.904 24.6372 47.88 24.7572C47.856 24.8532 48 25.0212 48.192 25.0932C48.72 25.2612 49.608 26.4852 49.44 26.7732C49.368 26.8932 49.464 27.0132 49.68 27.0132C49.944 27.0132 50.04 27.1332 49.944 27.3732C49.872 27.6132 49.968 27.8052 50.256 27.9252C50.952 28.1892 51.984 29.5572 51.816 29.9892C51.72 30.2532 51.816 30.3732 52.128 30.3732C52.704 30.3732 53.688 31.6692 53.496 32.1492C53.4 32.4132 53.544 32.6052 53.952 32.7492C54.768 33.0612 56.328 35.0052 56.136 35.5092C56.04 35.7732 56.184 35.9652 56.568 36.1092C57.216 36.3492 59.688 39.3492 59.76 39.9492C59.832 40.6692 60.168 41.1492 60.48 41.0292C60.648 40.9572 61.176 41.3892 61.68 42.0612C62.424 43.0452 62.496 43.2372 62.136 43.3092C61.896 43.3572 61.56 43.1892 61.368 42.9492C61.032 42.5172 61.032 42.5172 61.2 42.9732C61.32 43.2372 61.44 43.9092 61.512 44.4852C61.56 45.0372 61.68 45.4932 61.776 45.4932C61.872 45.4932 62.136 45.1812 62.352 44.7732C62.592 44.3892 62.88 44.0532 62.976 44.0532C63.096 44.0532 63.6 44.6292 64.128 45.3252C64.656 45.9972 66.936 48.8772 69.192 51.7092C71.448 54.5412 73.248 56.9412 73.176 57.0612C73.104 57.1572 73.224 57.2532 73.416 57.2532C73.656 57.2532 73.776 57.4452 73.728 57.7812C73.704 58.1652 73.824 58.3572 74.16 58.4052C74.424 58.4532 75.384 59.4372 76.32 60.6372C77.256 61.8372 78.912 63.9492 79.992 65.3172C81.096 66.7092 81.96 67.9092 81.888 67.9812C81.816 68.0292 76.992 68.1492 71.16 68.2212C60.912 68.3652 60.576 68.3652 60.648 67.9092C60.696 67.5732 60.528 67.4292 59.76 67.2852C58.368 67.0452 52.488 67.0452 52.32 67.3092C52.128 67.6452 52.776 67.7412 55.56 67.7892C56.928 67.8132 58.152 67.9092 58.248 67.9572C58.944 68.3892 58.056 68.5332 54.72 68.5332C52.392 68.5332 51 68.4372 51 68.2932C51 67.9332 49.152 68.0052 49.008 68.3652C48.912 68.6052 48.864 68.6052 48.864 68.3652C48.84 68.0052 48.12 67.9332 48.12 68.2932C48.12 68.4372 47.952 68.5332 47.76 68.5332C47.568 68.5332 47.4 68.4372 47.4 68.2932ZM57.84 63.9972C58.008 63.7092 57.336 63.5892 56.28 63.7092C55.584 63.7812 55.512 63.8292 55.92 63.9972C56.592 64.2612 57.672 64.2612 57.84 63.9972ZM64.44 47.6532C64.44 47.3892 64.344 47.1732 64.224 47.1732C63.888 47.1732 63.672 47.6052 63.84 47.8932C64.08 48.3012 64.44 48.1572 64.44 47.6532ZM50.328 30.3252C51.144 29.4132 51.144 29.3172 50.472 28.8372C49.704 28.2852 49.512 28.3572 49.68 29.1252C49.776 29.6052 49.704 29.9172 49.44 30.1332C49.008 30.4932 48.96 31.0932 49.368 31.0932C49.512 31.0932 49.944 30.7572 50.328 30.3252Z" fill="#00D9FC"/>
<path d="M26.52 67.0932L25.68 66.9492L26.592 66.7572C27.504 66.5652 28.008 66.7092 27.576 67.0452C27.456 67.1652 26.976 67.1652 26.52 67.0932Z" fill="#00D9FC"/>
<path d="M21.264 66.9972C21.528 66.7572 24.84 66.6132 24.84 66.8292C24.84 66.9972 24.144 67.0932 22.992 67.0932C21.984 67.0932 21.216 67.0452 21.264 66.9972Z" fill="#00D9FC"/>
<path d="M30.912 66.3012C30.72 65.9892 30.984 65.8452 32.136 65.6292C32.952 65.4852 33.384 65.5332 33.888 65.7732C34.248 65.9652 35.04 66.1332 35.616 66.1332C36.192 66.1332 36.6 66.2052 36.528 66.2772C36.312 66.5172 31.056 66.5172 30.912 66.3012Z" fill="#00D9FC"/>
<path d="M28.272 66.1092C28.536 65.9412 28.824 65.9412 29.112 66.1092C29.448 66.3252 29.376 66.3492 28.68 66.3492C27.984 66.3492 27.912 66.3252 28.272 66.1092Z" fill="#00D9FC"/>
<path d="M36.072 64.8852C36.48 64.6932 36.696 64.6932 36.888 64.8852C37.104 65.1012 36.984 65.1732 36.36 65.1492C35.568 65.1492 35.544 65.1252 36.072 64.8852Z" fill="#00D9FC"/>
<path d="M44.568 27.5652C44.688 26.9652 45.24 26.8932 45.24 27.4692C45.24 27.7572 45.096 27.9732 44.856 27.9732C44.64 27.9732 44.52 27.8052 44.568 27.5652Z" fill="#00D9FC"/>
<g filter="url(#filter0_d_2_3)">
<path d="M80.153 93.1566C79.5455 92.8996 78.9614 92.222 78.6576 91.4276C78.3539 90.6798 78.7511 89.5115 79.4521 88.9274C79.8726 88.6003 79.8726 88.6003 79.4988 89.1611C78.9847 89.9088 79.0081 91.2406 79.5222 91.8715C80.0829 92.5258 80.8307 92.7361 81.812 92.5491C82.77 92.3856 83.471 91.2406 83.2373 90.2593C83.1205 89.8153 80.6204 86.5674 80.0362 86.1235C79.9661 86.0534 79.6156 85.6328 79.2651 85.1655C78.3071 83.9037 78.3772 82.642 79.4521 81.7073C80.6437 80.6558 81.8821 80.6792 82.9803 81.7774C84.1019 82.899 84.0785 83.9504 82.957 85.1421L82.0581 85.7534L82.7233 85.0954C83.4009 84.0439 83.4476 83.5532 82.957 82.6186C82.5831 81.8942 81.3213 81.3335 80.597 81.5905C79.6623 81.9176 79.1016 82.6653 79.1016 83.5766C79.1016 84.2542 79.3119 84.6748 80.1063 85.5627C83.1439 88.9975 83.7748 89.862 83.7748 90.6565C83.7748 91.6145 83.027 92.6192 81.9989 93.0398C81.1344 93.4137 80.8306 93.4137 80.153 93.1566Z" fill="#280666"/>
<path d="M80.073 93.3459L80.0729 93.346L80.0802 93.3488C80.4268 93.4802 80.7047 93.557 81.017 93.54C81.3239 93.5233 81.6437 93.4172 82.0787 93.2292C83.1675 92.7829 83.9802 91.7129 83.9802 90.6565C83.9802 90.1926 83.7904 89.7336 83.2463 88.9795C82.7018 88.2249 81.7775 87.1423 80.2602 85.4266L80.2594 85.4257C79.8643 84.9841 79.6285 84.6736 79.4894 84.3982C79.3546 84.1311 79.307 83.8893 79.307 83.5766C79.307 82.7618 79.8037 82.0858 80.6649 81.7844L80.6649 81.7844L80.6657 81.7841C80.9573 81.6806 81.3953 81.7358 81.8259 81.9247C82.2539 82.1125 82.6168 82.4075 82.7744 82.7128L82.7744 82.7128L82.775 82.7141C83.0134 83.1682 83.1032 83.4817 83.0737 83.7938C83.0439 84.109 82.89 84.4547 82.5627 84.9652L81.9136 85.6073L82.1736 85.9233L83.0725 85.312L83.0911 85.2993L83.1066 85.2829C83.6844 84.669 84.0087 84.0609 84.0153 83.4356C84.0219 82.8074 83.7076 82.2141 83.1256 81.6321C82.5498 81.0563 81.9178 80.7438 81.2553 80.7308C80.5939 80.7178 79.9387 81.0041 79.3167 81.5527C78.7452 82.0499 78.4267 82.648 78.3911 83.3025C78.3556 83.9538 78.6017 84.6314 79.1011 85.2893C79.451 85.7557 79.8092 86.1871 79.8909 86.2688L79.9008 86.2786L79.9119 86.2871C80.0369 86.3821 80.2881 86.6499 80.61 87.0278C80.9256 87.3985 81.2945 87.8573 81.6494 88.317C82.0043 88.7767 82.3439 89.2353 82.6013 89.6055C82.7302 89.7908 82.8371 89.9521 82.9148 90.0794C82.9537 90.1431 82.9841 90.1963 83.0059 90.2386C83.0168 90.2597 83.0248 90.2768 83.0305 90.2902C83.0333 90.2968 83.0353 90.302 83.0367 90.3058C83.0375 90.308 83.038 90.3095 83.0383 90.3105C83.139 90.7386 83.0381 91.213 82.7968 91.6027C82.5547 91.9939 82.1858 92.2768 81.7774 92.3466L81.7774 92.3465L81.7736 92.3473C81.3056 92.4364 80.9076 92.4281 80.567 92.3285C80.2295 92.2299 79.9361 92.0381 79.6799 91.7398C79.4633 91.4727 79.3359 91.0346 79.3304 90.5577C79.3249 90.0819 79.4415 89.6071 79.6681 89.2775L79.6681 89.2775L79.6698 89.275L79.6721 89.2715C79.7636 89.1343 79.835 89.0271 79.8827 88.9507C79.9064 88.9127 79.9275 88.8771 79.9428 88.8466C79.9503 88.8317 79.9592 88.8126 79.9661 88.7917L79.9662 88.7913C79.9705 88.7782 79.9865 88.7295 79.9748 88.671C79.9676 88.6349 79.9482 88.5878 79.9037 88.5501C79.8601 88.5132 79.8122 88.5024 79.7793 88.5004C79.7239 88.4969 79.6804 88.516 79.668 88.5214L79.6678 88.5215C79.6334 88.5366 79.5985 88.5599 79.5717 88.5786C79.514 88.6189 79.4319 88.6827 79.3316 88.7608L79.3259 88.7652L79.3258 88.7651L79.3205 88.7695C78.9355 89.0904 78.6415 89.5636 78.4826 90.0527C78.3248 90.5384 78.2912 91.0696 78.4664 91.5029C78.7841 92.3324 79.4003 93.0613 80.073 93.3459ZM82.957 82.6186C82.5831 81.8942 81.3213 81.3335 80.597 81.5905L82.7716 85.0197C83.4029 84.0198 83.4357 83.5305 82.957 82.6186Z" stroke="#280666" stroke-width="0.410959"/>
</g>
<path d="M5.5726 82.8085H5.4978C5.3108 83.3321 5.0864 83.9554 4.8246 84.6785C4.57527 85.4016 4.31347 86.1496 4.0392 86.9225C3.7774 87.683 3.52807 88.3936 3.2912 89.0543L3.1977 89.3348C3.1229 89.5592 3.0294 89.8397 2.9172 90.1763C2.805 90.5129 2.68657 90.8682 2.5619 91.2422C2.43723 91.6037 2.3188 91.9466 2.2066 92.2707C2.0944 92.5824 2.00713 92.8379 1.9448 93.0374C1.85753 93.0748 1.76403 93.0997 1.6643 93.1122C1.57703 93.1371 1.46483 93.1496 1.3277 93.1496C1.12823 93.1496 0.947467 93.0997 0.7854 93C0.6358 92.8878 0.561 92.7133 0.561 92.4764C0.561 92.3642 0.5797 92.252 0.6171 92.1398C0.6545 92.0151 0.698133 91.8842 0.748 91.7471C0.8976 91.3232 1.07837 90.8059 1.2903 90.195C1.5147 89.5841 1.7578 88.9172 2.0196 88.1941C2.2814 87.471 2.55567 86.7293 2.8424 85.9688C3.12913 85.2083 3.40963 84.4666 3.6839 83.7435C3.95817 83.0204 4.21373 82.3597 4.4506 81.7613C4.55033 81.7114 4.69993 81.6616 4.8994 81.6117C5.09887 81.5618 5.30457 81.5369 5.5165 81.5369C5.76583 81.5369 6.0027 81.5743 6.2271 81.6491C6.46397 81.7239 6.61357 81.8486 6.6759 82.0231C6.9751 82.7462 7.293 83.569 7.6296 84.4915C7.97867 85.4016 8.32773 86.3553 8.6768 87.3526C9.02587 88.3375 9.35623 89.2974 9.6679 90.2324C9.99203 91.1674 10.2788 92.0151 10.5281 92.7756C10.4408 92.8878 10.3224 92.9751 10.1728 93.0374C10.0357 93.1122 9.87983 93.1496 9.7053 93.1496C9.46843 93.1496 9.28767 93.0997 9.163 93C9.03833 92.8878 8.93237 92.707 8.8451 92.4577L7.8166 89.4096L7.667 88.886C7.41767 88.1255 7.15587 87.3588 6.8816 86.5859C6.6198 85.813 6.37047 85.0961 6.1336 84.4354C5.9092 83.7747 5.7222 83.2324 5.5726 82.8085ZM2.4684 89.9706L2.9546 88.7177H8.1719L8.4711 89.9706H2.4684Z" fill="black"/>
<path d="M45.24 81.8212H45.0613V82V87.28V92.56V92.7388H45.24H48.6C49.9887 92.7388 50.8392 92.727 51.3425 92.6748C51.5905 92.6491 51.7775 92.6117 51.906 92.548C51.9732 92.5146 52.0343 92.4694 52.0777 92.4055C52.1224 92.3397 52.1388 92.2682 52.1388 92.2C52.1388 92.135 52.1233 92.068 52.0836 92.0056C52.0449 91.9449 51.9903 91.9 51.9297 91.8658C51.8139 91.8005 51.6486 91.7596 51.4365 91.7291C51.0066 91.6672 50.2931 91.6372 49.1562 91.6133C49.156 91.6133 49.1559 91.6133 49.1558 91.6133L46.4988 91.5457V89.56V87.5829L48.428 87.6267L48.428 87.6267L48.4298 87.6267C48.9094 87.6327 49.2827 87.6358 49.5718 87.6301C49.8585 87.6245 50.0734 87.6101 50.2314 87.5782C50.3877 87.5466 50.5228 87.4913 50.6081 87.3746C50.6906 87.2617 50.6988 87.1267 50.6988 87.016C50.6988 86.9098 50.6902 86.7776 50.6069 86.6663C50.5217 86.5525 50.3877 86.4974 50.2314 86.4658C49.9248 86.4038 49.3779 86.4056 48.4277 86.4293C48.4276 86.4293 48.4276 86.4293 48.4276 86.4293L46.4988 86.4731V84.76V83.0221L48.9087 83.0667V83.0667L48.9102 83.0667C50.0889 83.0787 50.7516 83.0796 51.1162 83.0194C51.2971 82.9895 51.449 82.9387 51.5471 82.8272C51.6489 82.7115 51.6588 82.569 51.6588 82.456C51.6588 82.3394 51.6465 82.1904 51.5247 82.0735C51.4152 81.9684 51.2466 81.9196 51.0345 81.8891C50.6013 81.8267 49.8042 81.8212 48.36 81.8212H45.24Z" fill="black" stroke="black" stroke-width="0.357503"/>
<path d="M36.8641 92.6068L36.8641 92.6068L36.8676 92.6081C37.3641 92.7863 38.3552 92.9005 39.3233 92.9424C40.292 92.9844 41.2876 92.9562 41.7954 92.8292L41.7954 92.8293L41.8011 92.8277C41.9268 92.7918 42.0592 92.7487 42.1658 92.6542C42.2779 92.5547 42.3408 92.4185 42.3796 92.2411C42.4179 92.0664 42.4369 91.8326 42.4471 91.5175C42.4573 91.2002 42.4588 90.7893 42.4588 90.2558C42.4588 89.7105 42.4573 89.2934 42.4467 88.976C42.4362 88.6617 42.4165 88.4313 42.3756 88.2659C42.3338 88.0973 42.2616 87.9625 42.1213 87.8875C41.9987 87.822 41.8514 87.8211 41.728 87.8211C41.6037 87.8211 41.4608 87.8226 41.3417 87.8801C41.2021 87.9475 41.1266 88.0715 41.0844 88.2296C41.0439 88.3809 41.0266 88.5886 41.0195 88.866C41.0122 89.1465 41.0153 89.5142 41.0213 89.993V91.7921L40.0606 91.8534L40.0605 91.8534C38.6066 91.9472 37.2641 91.5705 36.3717 90.8155C35.4537 90.0351 34.9125 88.8278 34.799 87.5994C34.6854 86.3701 35.0021 85.1472 35.7628 84.3297C36.2413 83.8162 36.6735 83.5009 37.2376 83.3091C37.8085 83.115 38.5279 83.0426 39.5909 83.0426C40.0399 83.0486 40.3905 83.0516 40.6626 83.0459C40.9327 83.0403 41.137 83.0259 41.2884 82.9936C41.4391 82.9615 41.5699 82.9048 41.6521 82.7875C41.7304 82.6757 41.7388 82.5427 41.7388 82.4318C41.7388 82.3188 41.7326 82.1824 41.6591 82.0688C41.5786 81.9446 41.4465 81.8868 41.2939 81.8573C41.1424 81.828 40.9374 81.8203 40.6663 81.8245C40.3926 81.8287 40.0387 81.8453 39.5835 81.8693C38.1721 81.9302 36.9969 82.2228 36.0362 82.7652C35.0734 83.3087 34.3362 84.0973 33.7937 85.1328C33.3877 85.9069 33.2622 87.0078 33.3661 88.0624C33.47 89.1163 33.8071 90.1649 34.3676 90.8273L34.3678 90.8276C34.7799 91.3124 35.115 91.6491 35.4955 91.9195C35.8762 92.1901 36.294 92.3884 36.8641 92.6068Z" fill="black" stroke="black" stroke-width="0.357503"/>
<path d="M13.96 81.8212H13.7812V82V87.28C13.7812 89.8307 13.787 91.1619 13.851 91.8535C13.8671 92.0277 13.8874 92.1673 13.9138 92.2786C13.9399 92.3885 13.9745 92.482 14.0258 92.5558C14.0809 92.6351 14.151 92.6857 14.2326 92.7126C14.3062 92.7368 14.3815 92.7388 14.44 92.7388C14.6367 92.7388 14.813 92.689 14.9398 92.5528C15.0619 92.4217 15.1093 92.2405 15.1224 92.0439L15.1228 92.0439V92.032C15.1228 91.9225 15.1288 91.7212 15.1368 91.4598C15.1399 91.3569 15.1433 91.2447 15.1467 91.1251C15.1587 90.7053 15.1707 90.2003 15.1708 89.7064L15.2138 88.1118L16.7149 88.1547L16.7149 88.1547L16.7173 88.1547C17.5179 88.1669 17.9173 88.1923 18.2017 88.2943C18.4721 88.3912 18.6491 88.5613 18.987 88.9355C19.3728 89.3668 19.8899 90.3486 20.1245 91.1464L20.1249 91.1477C20.314 91.7743 20.4474 92.1709 20.6073 92.4056C20.6925 92.5308 20.7915 92.6203 20.9173 92.6744C21.0385 92.7265 21.1692 92.7388 21.304 92.7388C21.4849 92.7388 21.6584 92.6975 21.7896 92.628C21.8549 92.5934 21.9183 92.5473 21.9648 92.4875C22.0105 92.4288 22.0456 92.3482 22.0341 92.2551C22.0184 91.9642 21.8882 91.5502 21.7073 91.1065C21.5219 90.6518 21.2742 90.1445 21.0106 89.6658C20.7471 89.1874 20.4656 88.7334 20.2115 88.3864C20.0846 88.2132 19.9621 88.0631 19.8499 87.9492C19.7451 87.8428 19.6276 87.7448 19.5088 87.7092C19.3461 87.6567 19.2645 87.6094 19.2291 87.5721C19.215 87.5573 19.2122 87.548 19.2112 87.5424C19.2099 87.5355 19.2087 87.5183 19.2201 87.4849C19.2452 87.4118 19.3161 87.3015 19.4634 87.1396C19.6073 86.9814 19.8101 86.7884 20.0788 86.5496L20.0788 86.5496L20.0804 86.5481C20.4873 86.1771 20.7497 85.9064 20.904 85.6146C21.0626 85.3146 21.0988 85.0091 21.0988 84.592C21.0988 84.3181 21.0739 84.0261 21.0302 83.7699C20.9881 83.5232 20.9249 83.2877 20.8363 83.1372C20.5953 82.6746 20.035 82.3523 19.2724 82.1426C18.498 81.9298 17.4724 81.8212 16.24 81.8212H13.96ZM18.0369 86.8207L18.0369 86.8207L18.0349 86.8213C17.5144 86.9832 16.8233 87.0777 16.2376 87.0953C15.9451 87.1042 15.6857 87.0936 15.4918 87.0649C15.3943 87.0505 15.3195 87.0324 15.2674 87.0129C15.2457 87.0048 15.2315 86.9977 15.2226 86.9927C15.2217 86.9885 15.2207 86.9836 15.2197 86.978C15.2133 86.9438 15.206 86.8959 15.1982 86.8349C15.1825 86.7133 15.1655 86.5468 15.1492 86.3474C15.1164 85.9489 15.0866 85.4244 15.0747 84.8761L15.0747 84.8758L15.0308 83.0097L16.2731 82.9465L16.2732 82.9465C17.1984 82.8991 17.9436 82.9654 18.4923 83.1311C19.0422 83.2972 19.3695 83.5546 19.5082 83.8716L19.5082 83.8717L19.509 83.8734C19.8157 84.5549 19.8135 85.1759 19.5658 85.6767C19.3172 86.1794 18.8063 86.591 18.0369 86.8207Z" fill="black" stroke="black" stroke-width="0.357503"/>
<path d="M27.7351 92.6893L27.7361 92.6891C27.7407 92.6885 27.7453 92.6879 27.7501 92.6872C27.8695 92.6711 28.0328 92.6492 28.1532 92.508C28.2669 92.3749 28.3188 92.1639 28.3517 91.8592C28.4187 91.2376 28.4187 90.0317 28.4187 87.6724V87.64V83.012L30.118 82.9467C30.1182 82.9466 30.1183 82.9466 30.1184 82.9466C30.8245 82.9227 31.3022 82.8866 31.6056 82.8195C31.756 82.7863 31.8841 82.7413 31.9775 82.6715C32.0817 82.5935 32.1387 82.4866 32.1387 82.36C32.1387 82.2855 32.1174 82.2095 32.0631 82.1424C32.0122 82.0796 31.9424 82.0373 31.8676 82.0067C31.7219 81.947 31.5033 81.9105 31.1979 81.8849C30.5798 81.8331 29.5212 81.8212 27.76 81.8212C25.9988 81.8212 24.9402 81.8331 24.3221 81.8849C24.0166 81.9105 23.7981 81.947 23.6524 82.0067C23.5775 82.0373 23.5078 82.0796 23.4569 82.1424C23.4025 82.2095 23.3812 82.2855 23.3812 82.36C23.3812 82.4824 23.4332 82.5889 23.5338 82.6686C23.624 82.7399 23.7477 82.7855 23.8914 82.8191C24.1806 82.8866 24.6352 82.9227 25.3051 82.9466C25.3052 82.9466 25.3054 82.9466 25.3056 82.9466L26.8637 83.0116L26.9332 87.7138L26.9333 87.7146L26.9812 92.5858L26.9832 92.7873L27.1831 92.7613L27.7351 92.6893Z" fill="black" stroke="black" stroke-width="0.357503"/>
<path d="M55.24 81.8212H55.0613V82V87.28V92.56V92.7388H55.24H58.6C59.9887 92.7388 60.8392 92.727 61.3425 92.6748C61.5905 92.6491 61.7775 92.6117 61.906 92.548C61.9732 92.5146 62.0343 92.4694 62.0777 92.4055C62.1224 92.3397 62.1388 92.2682 62.1388 92.2C62.1388 92.135 62.1233 92.068 62.0836 92.0056C62.0449 91.9449 61.9903 91.9 61.9297 91.8658C61.8139 91.8005 61.6486 91.7596 61.4365 91.7291C61.0066 91.6672 60.2931 91.6372 59.1562 91.6133C59.156 91.6133 59.1559 91.6133 59.1558 91.6133L56.4988 91.5457V89.56V87.5829L58.428 87.6267L58.428 87.6267L58.4298 87.6267C58.9094 87.6327 59.2827 87.6358 59.5718 87.6301C59.8585 87.6245 60.0734 87.6101 60.2314 87.5782C60.3877 87.5466 60.5228 87.4913 60.6081 87.3746C60.6906 87.2617 60.6988 87.1267 60.6988 87.016C60.6988 86.9098 60.6902 86.7776 60.6069 86.6663C60.5217 86.5525 60.3877 86.4974 60.2314 86.4658C59.9248 86.4038 59.3779 86.4056 58.4277 86.4293C58.4276 86.4293 58.4276 86.4293 58.4276 86.4293L56.4988 86.4731V84.76V83.0221L58.9087 83.0667V83.0667L58.9102 83.0667C60.0889 83.0787 60.7516 83.0796 61.1162 83.0194C61.2971 82.9895 61.449 82.9387 61.5471 82.8272C61.6489 82.7115 61.6588 82.569 61.6588 82.456C61.6588 82.3394 61.6465 82.1904 61.5247 82.0735C61.4152 81.9684 61.2466 81.9196 61.0345 81.8891C60.6013 81.8267 59.8042 81.8212 58.36 81.8212H55.24Z" fill="black" stroke="black" stroke-width="0.357503"/>
<path d="M64.6372 92.032H64.6368L64.6376 92.0439C64.6507 92.2405 64.6981 92.4217 64.8202 92.5528C64.947 92.689 65.1233 92.7388 65.32 92.7388C65.4343 92.7388 65.5766 92.7284 65.6948 92.6263C65.808 92.5286 65.8655 92.3759 65.9033 92.1871C65.9792 91.8074 66.0029 91.1155 66.0267 89.8765C66.0628 88.7078 66.0928 88.0445 66.1563 87.6634C66.1882 87.4718 66.2253 87.3761 66.2589 87.3267C66.2834 87.2909 66.3084 87.2746 66.3602 87.2639C66.38 87.2611 66.4324 87.2648 66.5293 87.3049C66.624 87.3441 66.7412 87.4097 66.8789 87.5022C67.1537 87.687 67.4915 87.967 67.8643 88.319C68.609 89.0221 69.4779 89.998 70.24 91.0339L70.24 91.0339L70.2413 91.0357C70.7552 91.7168 71.1029 92.1416 71.403 92.3938C71.5562 92.5226 71.702 92.6109 71.8564 92.6658C72.0109 92.7207 72.1644 92.7388 72.328 92.7388C72.4588 92.7388 72.5716 92.7326 72.6657 92.7189C72.7572 92.7056 72.8443 92.6834 72.9147 92.6432C72.9899 92.6002 73.0589 92.5277 73.0724 92.4202C73.0842 92.3256 73.0474 92.2415 73.0089 92.1794C72.5152 91.3414 70.9422 89.5054 69.4784 88.0416C69.0363 87.5996 68.631 87.1703 68.3369 86.8376C68.1896 86.671 68.0721 86.5306 67.9922 86.426C67.9535 86.3754 67.9259 86.336 67.9084 86.3077C67.9096 86.3054 67.911 86.303 67.9126 86.3003C67.9292 86.2719 67.9567 86.2348 67.9963 86.1912C68.0751 86.1045 68.1895 86.0058 68.3231 85.9167L68.3304 85.9119L68.3372 85.9063C68.6061 85.6863 69.6175 84.7952 70.5328 83.88C71.2692 83.1792 71.6942 82.7563 71.8723 82.4973C71.918 82.4307 71.9558 82.3636 71.9758 82.2968C71.9965 82.2279 72.0025 82.1437 71.9604 82.0629C71.9198 81.9851 71.8515 81.943 71.795 81.9192C71.7391 81.8955 71.6756 81.8816 71.6142 81.8718C71.4671 81.845 71.3136 81.8817 71.1528 81.9595C70.991 82.0379 70.8059 82.1658 70.5883 82.345C70.1529 82.7038 69.5582 83.2931 68.7186 84.1807C68.0099 84.9194 67.4708 85.4671 67.0592 85.8278C66.8532 86.0083 66.6849 86.1368 66.5477 86.2184C66.4068 86.3022 66.3195 86.3236 66.2699 86.3214C66.2373 86.32 66.2065 86.3089 66.169 86.2493C66.1256 86.1804 66.0854 86.0617 66.0543 85.8745C65.9927 85.5024 65.9787 84.9371 65.9787 84.16C65.9787 83.6386 65.9773 83.2395 65.967 82.9356C65.9569 82.6348 65.9379 82.4134 65.8985 82.2541C65.8584 82.0917 65.7886 81.9601 65.6519 81.8865C65.5325 81.8222 65.3897 81.8212 65.272 81.8212H64.72H64.5394L64.5413 82.0018L64.5893 86.7537C64.5969 87.5838 64.6046 88.3916 64.6115 89.1164C64.6262 90.6556 64.6372 91.8206 64.6372 92.032Z" fill="black" stroke="black" stroke-width="0.357503"/>
<defs>
<filter id="filter0_d_2_3" x="74.209" y="80.5249" width="13.9463" height="21.0918" filterUnits="userSpaceOnUse" color-interpolation-filters="sRGB">
<feFlood flood-opacity="0" result="BackgroundImageFix"/>
<feColorMatrix in="SourceAlpha" type="matrix" values="0 0 0 0 0 0 0 0 0 0 0 0 0 0 0 0 0 0 127 0" result="hardAlpha"/>
<feOffset dy="3.93443"/>
<feGaussianBlur stdDeviation="1.96721"/>
<feComposite in2="hardAlpha" operator="out"/>
<feColorMatrix type="matrix" values="0 0 0 0 0 0 0 0 0 0 0 0 0 0 0 0 0 0 0.25 0"/>
<feBlend mode="normal" in2="BackgroundImageFix" result="effect1_dropShadow_2_3"/>
<feBlend mode="normal" in="SourceGraphic" in2="effect1_dropShadow_2_3" result="shape"/>
</filter>
</defs>
</svg>
